<?xml version="1.0" standalone="no"?>
<svg width="313px" height="198px" viewBox="0 0 313 198" version="1.1" xmlns="http://www.w3.org/2000/svg">
    <defs>
        <linearGradient x1="101.999998%" y1="100.999999%" x2="0%" y2="-29.7404392%" id="datasafe-linearGradient-1">
            <stop stop-color="#3023AE" offset="0%"></stop>
            <stop stop-color="#C86DD7" offset="100%"></stop>
        </linearGradient>
        <linearGradient x1="101.999998%" y1="100.999999%" x2="-76.8702182%" y2="-49.0983598%"
                        id="datasafe-linearGradient-2">
            <stop stop-color="#3023AE" offset="0%"></stop>
            <stop stop-color="#C86DD7" offset="100%"></stop>
        </linearGradient>
    </defs>
    <g id="🖥-Layout" stroke="none" stroke-width="1" fill="none" fill-rule="evenodd">
        <g id="Detailseite#-Products---Docusafe" transform="translate(-577.000000, -331.000000)">
            <g id="Group-10" transform="translate(577.000000, 331.000000)">
                <g id="Group-11" transform="translate(104.000000, 0.000000)" fill-rule="nonzero">
                    <path d="M64.8228228,84.7282455 C64.6266601,84.8220876 64.428408,84.9147983 64.2281005,85.0063776 C57.3788895,88.1417406 48.1243435,90 37.9316466,90 C27.7389496,90 18.4844036,88.1417406 11.6351927,85.0063776 C8.21411474,83.4422841 5.39260681,81.5481514 3.33995934,79.3239796 C1.28731187,77.0998096 0.0105799776,74.4666778 0.0105799776,71.6326531 L0.0105799776,55.1020408 C-0.00352665919,54.9872449 -0.00352665919,54.872449 0.0105799776,54.7576531 L0.0105799776,36.7346939 C-0.00352665919,36.619898 -0.00352665919,36.505102 0.0105799776,36.3903061 L0.0105799776,18.3673469 C0.0105799776,15.5333222 1.28731187,12.9001922 3.33995934,10.6760204 C5.39260681,8.45185041 8.21411474,6.55771776 11.6351927,4.99362245 C18.4844036,1.85825939 27.7389496,0 37.9316466,0 C48.1243435,0 57.3788895,1.85825939 64.2281005,4.99362245 C67.6491784,6.55771776 70.4706863,8.45185041 72.5233338,10.6760204 C74.5759813,12.9001922 75.8527132,15.5333222 75.8527132,18.3673469 L75.8527132,32.9418132 C74.4513336,33.5061481 73.2474903,33.9883404 72.241183,34.3883901 L72.241183,26.3456633 C70.2167506,28.4478631 67.508103,30.2415502 64.2281005,31.7410714 C57.3788895,34.8764345 48.1243435,36.7346939 37.9316466,36.7346939 C27.7389496,36.7346939 18.4844036,34.8764345 11.6351927,31.7410714 C8.35519014,30.2415502 5.64654252,28.4478631 3.62211013,26.3456633 L3.62211013,36.3903061 C3.63621857,36.505102 3.63621857,36.619898 3.62211013,36.7346939 C3.62211013,38.4638069 4.39097059,40.1642229 5.99217679,41.9005102 C7.593383,43.6367994 10.0480949,45.3013402 13.1588069,46.7219388 C19.3802328,49.570312 28.1762825,51.4285714 37.9316466,51.4285714 C42.1773862,51.4285714 46.2414154,51.0765849 49.9905702,50.4441803 C50.0653483,51.7052097 50.1691931,52.9372286 50.3012599,54.1405304 C46.4223488,54.7666859 42.2616504,55.1020408 37.9316466,55.1020408 C27.7389496,55.1020408 18.4844036,53.2437814 11.6351927,50.1084184 C8.35519014,48.6088971 5.64654252,46.81521 3.62211013,44.7130102 L3.62211013,54.7576531 C3.63621857,54.872449 3.63621857,54.9872449 3.62211013,55.1020408 C3.62211013,56.8311539 4.39097059,58.5315698 5.99217679,60.2678571 C7.593383,62.0041463 10.0480949,63.6686871 13.1588069,65.0892857 C19.3802328,67.937659 28.1762825,69.7959184 37.9316466,69.7959184 C43.5451337,69.7959184 48.8409782,69.1806213 53.5114112,68.1154367 C53.9595836,69.3138083 54.4459552,70.4695204 54.9688895,71.5831414 C49.840566,72.7986281 44.0554244,73.4693878 37.9316466,73.4693878 C27.7389496,73.4693878 18.4844036,71.6111284 11.6351927,68.4757653 C8.35519014,66.9762441 5.64654252,65.1825569 3.62211013,63.0803571 L3.62211013,71.6326531 C3.62211013,73.3617661 4.39097059,75.062182 5.99217679,76.7984694 C7.593383,78.5347586 10.0480949,80.1992994 13.1588069,81.619898 C19.3802328,84.4682712 28.1762825,86.3265306 37.9316466,86.3265306 C47.2881739,86.3265306 55.7622259,84.6171107 61.9286191,81.9642311 C62.8644905,82.9655515 63.8317897,83.8857536 64.8228228,84.7282455 Z M37.9316466,3.67346939 C28.1762825,3.67346939 19.3802328,5.53172878 13.1588069,8.38010204 C10.0480949,9.80070245 7.593383,11.4652433 5.99217679,13.2015306 C4.39097059,14.9378198 3.62211013,16.6382339 3.62211013,18.3673469 C3.62211013,20.09646 4.39097059,21.7968759 5.99217679,23.5331633 C7.593383,25.2694524 10.0480949,26.9339933 13.1588069,28.3545918 C19.3802328,31.2029651 28.1762825,33.0612245 37.9316466,33.0612245 C47.6870107,33.0612245 56.4830621,31.2029651 62.7044862,28.3545918 C65.8151983,26.9339933 68.2699102,25.2694524 69.8711164,23.5331633 C71.4723226,21.7968759 72.241183,20.09646 72.241183,18.3673469 C72.241183,16.6382339 71.4723226,14.9378198 69.8711164,13.2015306 C68.2699102,11.4652433 65.8151983,9.80070245 62.7044862,8.38010204 C56.4830621,5.53172878 47.6870107,3.67346939 37.9316466,3.67346939 Z"
                          id="Combined-Shape" fill="url(#datasafe-linearGradient-1)"></path>
                    <path d="M79.0595354,36.1607143 C80.0983411,36.1607143 81.3193658,36.4488045 82.812001,36.9782073 C83.3131865,37.155966 83.8354286,37.3575151 84.4286331,37.598933 C85.0218376,37.840351 86.7531433,38.5714165 87.2024215,38.7302172 C91.7765271,40.3469685 93.8072906,40.9105741 99.1503674,42.0114051 C102.115774,42.6223661 103.077938,44.5141023 102.995137,46.8987514 C102.490893,61.4209717 98.2741553,72.2448319 91.5509882,79.7859964 C89.858543,81.6843588 88.0556394,83.3062266 86.1897623,84.672765 C85.0936771,85.4755203 84.0848814,86.171493 83.0307965,86.8112613 C81.3646467,87.8225175 80.0785099,88.3928571 79.0722416,88.3928571 C78.0675743,88.3928571 76.7871291,87.8284606 75.1319394,86.8281379 C74.0864387,86.1962839 73.0989382,85.5175685 71.9937594,84.7121861 C70.1077491,83.3377845 68.2856259,81.703009 66.5765534,79.7859964 C59.6831815,72.0539185 55.4281478,60.8964695 55.0946277,45.8661845 C55.0777512,45.1056337 55.1898431,44.4759322 55.6296757,43.8001187 C56.236803,42.867253 57.3139133,42.2521739 58.8650208,42.0098236 C62.65721,41.4173192 65.1138475,40.715837 70.8747203,38.7273348 C71.1991878,38.6153371 71.5801322,38.4677883 72.1037624,38.2538179 C72.3145389,38.1676886 73.3063654,37.7563814 73.5858262,37.6422825 C74.1562786,37.4093769 74.6318053,37.2229433 75.0913053,37.0548114 C76.6844815,36.4718655 77.9535916,36.1607143 79.0595354,36.1607143 Z"
                          id="Path-Copy-13" stroke="url(#datasafe-linearGradient-2)" stroke-width="3.65568"></path>
                </g>
                <g id="Group-4" transform="translate(0.000000, 135.000000)" fill="#000000">
                    <path d="M32.7078192,46.4725861 C32.7078192,48.4757146 32.3362967,50.3553344 31.5932405,52.1115018 C30.8501843,53.8676692 29.8301861,55.4042927 28.5332153,56.7214183 C27.2362445,58.0385439 25.7163796,59.0743927 23.9735751,59.8289959 C22.2307705,60.5835991 20.3731579,60.9608951 18.4006815,60.9608951 L-3.19744231e-14,60.9608951 L-3.19744231e-14,1.9375 L18.4006815,1.9375 C20.3731579,1.9375 22.2307705,2.31479594 23.9735751,3.06939914 C25.7163796,3.82400234 27.2362445,4.85985119 28.5332153,6.17697677 C29.8301861,7.49410235 30.8501843,9.03758574 31.5932405,10.8074732 C32.3362967,12.5773607 32.7078192,14.4638404 32.7078192,16.4669689 L32.7078192,46.4725861 Z M27.4794318,16.4669689 C27.4794318,15.1498434 27.2362534,13.9219166 26.7498893,12.7831517 C26.2635253,11.6443869 25.5947847,10.6428377 24.7436476,9.77847403 C23.8925105,8.91411037 22.9062871,8.23497767 21.7849478,7.74105558 C20.6636084,7.24713349 19.4544715,7.00017614 18.1575006,7.00017614 L5.22838746,7.00017614 L5.22838746,55.8982189 L18.1575006,55.8982189 C19.4544715,55.8982189 20.6636084,55.6512616 21.7849478,55.1573395 C22.9062871,54.6634174 23.8925105,53.9911446 24.7436476,53.140501 C25.5947847,52.2898574 26.2635253,51.2951681 26.7498893,50.1564033 C27.2362534,49.0176385 27.4794318,47.7897117 27.4794318,46.4725861 L27.4794318,16.4669689 Z"
                          id="Combined-Shape-Copy"></path>
                    <path d="M186.138792,46.6658598 C186.138792,48.6689883 185.74025,50.5486081 184.943153,52.3047755 C184.146057,54.060943 183.078774,55.5975664 181.741273,56.914692 C180.403771,58.2318176 178.850132,59.2676665 177.080307,60.0222697 C175.310482,60.7768729 173.43936,61.1541688 171.466883,61.1541688 L167.292279,61.1541688 C165.319803,61.1541688 163.44868,60.7768729 161.678856,60.0222697 C159.909031,59.2676665 158.355391,58.2318176 157.01789,56.914692 C155.680389,55.5975664 154.613106,54.060943 153.816009,52.3047755 C153.018913,50.5486081 152.62037,48.6689883 152.62037,46.6658598 L152.62037,44.3197416 L157.848758,43.4553823 L157.848758,46.6658598 C157.848758,47.9829854 158.112201,49.2109122 158.639095,50.349677 C159.16599,51.4884419 159.87526,52.4899911 160.766928,53.3543547 C161.658595,54.2187184 162.692103,54.8978511 163.867483,55.3917732 C165.042863,55.8856953 166.27902,56.1326526 167.57599,56.1326526 L171.223703,56.1326526 C172.520673,56.1326526 173.750075,55.8856953 174.911945,55.3917732 C176.073815,54.8978511 177.100568,54.2187184 177.992235,53.3543547 C178.883903,52.4899911 179.593173,51.4884419 180.120067,50.349677 C180.646962,49.2109122 180.910405,47.9829854 180.910405,46.6658598 L180.910405,44.8959812 C180.910405,42.8654126 180.518617,41.1778707 179.735031,39.833305 C178.951444,38.4887393 177.911181,37.3431317 176.614211,36.3964477 C175.31724,35.4497636 173.851414,34.6471523 172.216691,33.9885895 C170.581967,33.3300267 168.899983,32.6714738 167.170689,32.012911 C165.441395,31.3543482 163.759411,30.627196 162.124687,29.8314327 C160.489963,29.0356693 159.024138,28.04098 157.727167,26.8473349 C156.430197,25.6536899 155.389934,24.1925256 154.606347,22.4637983 C153.82276,20.7350709 153.430973,18.6084938 153.430973,16.0840031 L153.430973,14.972684 C153.430973,12.9695555 153.802496,11.0899357 154.545552,9.33376826 C155.288608,7.57760082 156.308606,6.04097735 157.605577,4.72385177 C158.902548,3.40672619 160.422413,2.37087734 162.165217,1.61627414 C163.908022,0.86167094 165.765634,0.484375 167.738111,0.484375 L171.466883,0.484375 C173.43936,0.484375 175.290217,0.86167094 177.019512,1.61627414 C178.748806,2.37087734 180.261916,3.40672619 181.558887,4.72385177 C182.855858,6.04097735 183.875856,7.57760082 184.618912,9.33376826 C185.361968,11.0899357 185.733491,12.9695555 185.733491,14.972684 L185.733491,16.4956028 L180.505104,17.3599621 L180.505104,14.972684 C180.505104,13.6555584 180.261925,12.4276316 179.775561,11.2888668 C179.289197,10.1501019 178.627211,9.15541265 177.789584,8.30476904 C176.951957,7.45412544 175.972489,6.78185267 174.85115,6.28793058 C173.72981,5.79400849 172.520673,5.54705114 171.223703,5.54705114 L167.981292,5.54705114 C166.684321,5.54705114 165.475184,5.79400849 164.353845,6.28793058 C163.232505,6.78185267 162.246282,7.45412544 161.395145,8.30476904 C160.544008,9.15541265 159.875267,10.1501019 159.388903,11.2888668 C158.902539,12.4276316 158.659361,13.6555584 158.659361,14.972684 L158.659361,16.0840031 C158.659361,17.9773711 159.051148,19.568874 159.834734,20.8585595 C160.618321,22.148245 161.658584,23.2526931 162.955555,24.171937 C164.252526,25.0911809 165.718351,25.8869323 167.353075,26.5592151 C168.987798,27.231498 170.669782,27.9174906 172.399076,28.6172136 C174.128371,29.3169365 175.810355,30.0852483 177.445078,30.9221718 C179.079802,31.7590954 180.545627,32.7880843 181.842598,34.0091695 C183.139569,35.2302546 184.179832,36.7188586 184.963418,38.4750261 C185.747005,40.2311935 186.138792,42.3714905 186.138792,44.8959812 L186.138792,46.6658598 Z"
                          id="Path-Copy-3" stroke="#000000" stroke-width="2.88"></path>
                    <path d="M223.456367,47.2134655 L205.055686,47.2134655 L201.245853,60.9608951 L195.814815,60.9608951 L212.837472,1.9375 L215.593521,1.9375 L232.697238,60.9608951 L227.30673,60.9608951 L223.456367,47.2134655 Z M206.47424,42.1507894 L222.078343,42.1507894 L214.418147,14.9440501 L214.256026,12.7625718 L214.093906,14.9440501 L206.47424,42.1507894 Z"
                          id="Combined-Shape-Copy-3" stroke="#000000" stroke-width="2.88"></path>
                    <polygon id="Path-Copy-4" stroke="#000000" stroke-width="3.6"
                             points="249.112335 7.00017614 249.112335 28.9384394 267.598807 28.9384394 267.598807 34.0011156 249.112335 34.0011156 249.112335 60.9608951 244.768519 60.9608951 244.768519 1.9375 271.942623 1.9375 271.942623 7.00017614"></polygon>
                    <polygon id="Path-Copy-5" stroke="#000000" stroke-width="3.6"
                             points="283.643519 60.9608951 283.643519 1.9375 310.817623 1.9375 310.817623 7.00017614 287.987335 7.00017614 287.987335 28.9384394 306.473807 28.9384394 306.473807 34.0011156 287.987335 34.0011156 287.987335 55.8982189 310.817623 55.8982189 310.817623 60.9608951"></polygon>
                    <path d="M65.8632038,48.0969238 L47.1381122,48.0969238 L43.2611108,62 L37.7343217,62 L55.0570937,2.30834961 L57.8617329,2.30834961 L75.2669943,62 L69.7814499,62 L65.8632038,48.0969238 Z M48.5816765,42.9769287 L64.4608842,42.9769287 L56.6656368,15.4621582 L56.500658,13.2559814 L56.3356792,15.4621582 L48.5816765,42.9769287 Z"
                          id="Combined-Shape"></path>
                    <polygon id="Path"
                             points="93.1702417 7.42834473 93.1702417 62 87.849676 62 87.849676 7.42834473 73.7439902 7.42834473 73.7439902 2.30834961 107.275927 2.30834961 107.275927 7.42834473"></polygon>
                    <path d="M134.841682,48.0969238 L116.11659,48.0969238 L112.239589,62 L106.7128,62 L124.035572,2.30834961 L126.840211,2.30834961 L144.245473,62 L138.759928,62 L134.841682,48.0969238 Z M117.560155,42.9769287 L133.439362,42.9769287 L125.644115,15.4621582 L125.479136,13.2559814 L125.314157,15.4621582 L117.560155,42.9769287 Z"
                          id="Combined-Shape"></path>
                </g>
            </g>
        </g>
    </g>
    <svg xmlns="http://www.w3.org/2000/svg" width="80" height="80" viewBox="0 0 250 250" fill="#151513" style="position: absolute; top: 0; left: 0">
        <path fill="#ffe" d="M250 0L135 115h-15l-12 27L0 250V0z"/>
        <path class="octo-arm" d="M122 109c15-9 9-19 9-19-3-7-2-11-2-11 1-7-3-2-3-2-4 5-2 11-2 11 3 10-5 15-9 16" style="-webkit-transform-origin: 120px 144px; transform-origin: 120px 144px"/>
        <path class="octo-body" d="M135 115s-4 2-5 0l-14-14c-3-2-6-3-8-3 8-11 15-24-2-41-5-5-10-7-16-7-1-2-3-7-12-11 0 0-5 3-7 16-4 2-8 5-12 9s-7 8-9 12c-14 4-17 9-17 9 4 8 9 11 11 11 0 6 2 11 7 16 16 16 30 10 41 2 0 3 1 7 5 11l12 11c1 2-1 6-1 6z"/>
    </svg>
</svg>
